<svg xmlns="http://www.w3.org/2000/svg" viewBox="0 0 500 500"><g id="freepik--background-complete--inject-2"><rect y="382.4" width="500" height="0.25" style="fill:#ebebeb"></rect><rect x="416.78" y="398.49" width="33.12" height="0.25" style="fill:#ebebeb"></rect><rect x="322.53" y="401.21" width="8.69" height="0.25" style="fill:#ebebeb"></rect><rect x="396.59" y="389.21" width="19.19" height="0.25" style="fill:#ebebeb"></rect><rect x="52.46" y="390.89" width="43.19" height="0.25" style="fill:#ebebeb"></rect><rect x="104.56" y="390.89" width="6.33" height="0.25" style="fill:#ebebeb"></rect><rect x="131.47" y="395.11" width="93.68" height="0.25" style="fill:#ebebeb"></rect><path d="M237,337.8H43.91a5.71,5.71,0,0,1-5.7-5.71V60.66A5.71,5.71,0,0,1,43.91,55H237a5.71,5.71,0,0,1,5.71,5.71V332.09A5.71,5.71,0,0,1,237,337.8ZM43.91,55.2a5.46,5.46,0,0,0-5.45,5.46V332.09a5.46,5.46,0,0,0,5.45,5.46H237a5.47,5.47,0,0,0,5.46-5.46V60.66A5.47,5.47,0,0,0,237,55.2Z" style="fill:#ebebeb"></path><path d="M453.31,337.8H260.21a5.72,5.72,0,0,1-5.71-5.71V60.66A5.72,5.72,0,0,1,260.21,55h193.1A5.71,5.71,0,0,1,459,60.66V332.09A5.71,5.71,0,0,1,453.31,337.8ZM260.21,55.2a5.47,5.47,0,0,0-5.46,5.46V332.09a5.47,5.47,0,0,0,5.46,5.46h193.1a5.47,5.47,0,0,0,5.46-5.46V60.66a5.47,5.47,0,0,0-5.46-5.46Z" style="fill:#ebebeb"></path><rect x="262.54" y="168.76" width="146.22" height="214.37" transform="translate(671.29 551.89) rotate(180)" style="fill:#f0f0f0"></rect><rect x="267.71" y="175.51" width="135.88" height="39.59" transform="translate(671.29 390.61) rotate(180)" style="fill:#e0e0e0"></rect><rect x="395.87" y="181.92" width="7.72" height="33.18" transform="translate(799.45 397.02) rotate(180)" style="fill:#ebebeb"></rect><rect x="358.54" y="181.92" width="7.72" height="33.18" transform="translate(724.8 397.02) rotate(180)" style="fill:#ebebeb"></rect><rect x="313.3" y="181.5" width="7.72" height="33.18" transform="translate(596.06 447.18) rotate(-170.22)" style="fill:#ebebeb"></rect><rect x="386.3" y="186.29" width="7.72" height="28.81" transform="translate(780.32 401.39) rotate(180)" style="fill:#ebebeb"></rect><rect x="368.56" y="186.29" width="7.72" height="28.81" transform="translate(744.84 401.39) rotate(180)" style="fill:#ebebeb"></rect><rect x="323.78" y="186.29" width="7.72" height="28.81" transform="translate(655.27 401.39) rotate(180)" style="fill:#ebebeb"></rect><rect x="345.19" y="185.8" width="7.72" height="28.81" transform="translate(646.36 471.35) rotate(-167.47)" style="fill:#ebebeb"></rect><rect x="379.63" y="180.27" width="3.86" height="34.83" transform="translate(763.11 395.37) rotate(180)" style="fill:#ebebeb"></rect><rect x="333.72" y="180.27" width="3.86" height="34.83" transform="translate(671.29 395.37) rotate(180)" style="fill:#ebebeb"></rect><rect x="267.71" y="221.37" width="135.88" height="39.59" style="fill:#e0e0e0"></rect><rect x="267.71" y="227.78" width="7.72" height="33.18" style="fill:#ebebeb"></rect><rect x="305.03" y="227.78" width="7.72" height="33.18" style="fill:#ebebeb"></rect><rect x="350.27" y="227.37" width="7.72" height="33.18" transform="translate(-36.29 63.69) rotate(-9.78)" style="fill:#ebebeb"></rect><rect x="277.27" y="232.15" width="7.72" height="28.81" style="fill:#ebebeb"></rect><rect x="295.01" y="232.15" width="7.72" height="28.81" style="fill:#ebebeb"></rect><rect x="339.79" y="232.15" width="7.72" height="28.81" style="fill:#ebebeb"></rect><rect x="318.38" y="231.66" width="7.72" height="28.81" transform="translate(-45.7 75.75) rotate(-12.53)" style="fill:#ebebeb"></rect><rect x="287.8" y="226.13" width="3.86" height="34.83" style="fill:#ebebeb"></rect><rect x="333.72" y="226.13" width="3.86" height="34.83" style="fill:#ebebeb"></rect><rect x="395.87" y="227.78" width="7.72" height="33.18" transform="translate(799.45 488.74) rotate(180)" style="fill:#ebebeb"></rect><rect x="386.3" y="232.15" width="7.72" height="28.81" transform="translate(780.32 493.11) rotate(180)" style="fill:#ebebeb"></rect><rect x="368.56" y="232.15" width="7.72" height="28.81" transform="translate(744.84 493.11) rotate(180)" style="fill:#ebebeb"></rect><rect x="379.63" y="226.13" width="3.86" height="34.83" transform="translate(763.11 487.09) rotate(180)" style="fill:#ebebeb"></rect><rect x="267.71" y="267.23" width="135.88" height="39.59" transform="translate(671.29 574.06) rotate(180)" style="fill:#e0e0e0"></rect><rect x="317.88" y="273.64" width="7.72" height="33.18" transform="translate(643.47 580.47) rotate(180)" style="fill:#ebebeb"></rect><rect x="272.63" y="273.23" width="7.72" height="33.18" transform="translate(499.74 622.39) rotate(-170.22)" style="fill:#ebebeb"></rect><rect x="345.64" y="278.01" width="7.72" height="28.81" transform="translate(698.99 584.84) rotate(180)" style="fill:#ebebeb"></rect><rect x="327.89" y="278.01" width="7.72" height="28.81" transform="translate(663.51 584.84) rotate(180)" style="fill:#ebebeb"></rect><rect x="283.11" y="278.01" width="7.72" height="28.81" transform="translate(573.94 584.84) rotate(180)" style="fill:#ebebeb"></rect><rect x="304.52" y="277.52" width="7.72" height="28.81" transform="translate(546.1 643.79) rotate(-167.47)" style="fill:#ebebeb"></rect><rect x="338.96" y="271.99" width="3.86" height="34.83" transform="translate(681.78 578.82) rotate(180)" style="fill:#ebebeb"></rect><rect x="293.05" y="271.99" width="3.86" height="34.83" transform="translate(589.96 578.82) rotate(180)" style="fill:#ebebeb"></rect><rect x="361.43" y="273.23" width="7.72" height="33.18" transform="translate(676.06 637.47) rotate(-170.22)" style="fill:#ebebeb"></rect><rect x="371.91" y="278.01" width="7.72" height="28.81" transform="translate(751.55 584.84) rotate(180)" style="fill:#ebebeb"></rect><rect x="393.32" y="277.52" width="7.72" height="28.81" transform="translate(721.59 663.05) rotate(-167.47)" style="fill:#ebebeb"></rect><rect x="381.85" y="271.99" width="3.86" height="34.83" transform="translate(767.56 578.82) rotate(180)" style="fill:#ebebeb"></rect><rect x="408.75" y="168.76" width="25.23" height="214.94" style="fill:#e0e0e0"></rect><path d="M100.25,134.2s-1.14-7.52,4.34-12.34,5-7.69,3.44-8.07-3,4.45-5.43,5.78c0,0-.07-6.88,2.38-9.41s3.73-9,1.4-9.17-2.57,3.88-3,6.71-3.08,6.8-3.08,6.8-.51-6.15-2.09-8.68,2.63-8.32,1-10.85-4.52,2.29-4.28,7.72,3.86,11.21,3,16.88c0,0-1.59-4-3-4.34s-2.88-3-3.84-4-2.17,2.4,0,5.53,7.72,11.52,6.87,18.3Z" style="fill:#e6e6e6"></path><path d="M103.53,130.78l1.79,11.27a5.72,5.72,0,0,1-5.66,6.63H97.75a5.72,5.72,0,0,1-5.66-6.63l1.79-11.27Z" style="fill:#e6e6e6"></path><rect x="76.36" y="144.52" width="126.97" height="6.52" transform="translate(279.69 295.57) rotate(180)" style="fill:#e0e0e0"></rect><rect x="191.89" y="120.48" width="5.59" height="24.05" transform="translate(389.38 265) rotate(180)" style="fill:#ebebeb"></rect><rect x="164.84" y="120.48" width="5.59" height="24.05" transform="translate(335.28 265) rotate(180)" style="fill:#ebebeb"></rect><rect x="132.05" y="120.18" width="5.59" height="24.05" transform="translate(245.29 285.38) rotate(-170.22)" style="fill:#ebebeb"></rect><rect x="184.96" y="123.65" width="5.59" height="20.88" transform="translate(375.51 268.17) rotate(180)" style="fill:#ebebeb"></rect><rect x="172.1" y="123.65" width="5.59" height="20.88" transform="translate(349.8 268.17) rotate(180)" style="fill:#ebebeb"></rect><rect x="139.65" y="123.65" width="5.59" height="20.88" transform="translate(284.89 268.17) rotate(180)" style="fill:#ebebeb"></rect><rect x="155.17" y="123.29" width="5.59" height="20.88" transform="translate(283.16 298.53) rotate(-167.47)" style="fill:#ebebeb"></rect><rect x="180.12" y="119.28" width="2.8" height="25.24" transform="translate(363.04 263.81) rotate(180)" style="fill:#ebebeb"></rect><rect x="146.85" y="119.28" width="2.8" height="25.24" transform="translate(296.5 263.81) rotate(180)" style="fill:#ebebeb"></rect><rect x="76.36" y="193.23" width="126.97" height="6.52" style="fill:#e0e0e0"></rect><rect x="82.2" y="169.18" width="5.59" height="24.05" style="fill:#ebebeb"></rect><rect x="109.25" y="169.18" width="5.59" height="24.05" style="fill:#ebebeb"></rect><rect x="142.04" y="168.88" width="5.59" height="24.05" transform="translate(-28.62 27.23) rotate(-9.78)" style="fill:#ebebeb"></rect><rect x="89.13" y="172.35" width="5.59" height="20.88" style="fill:#ebebeb"></rect><rect x="101.99" y="172.35" width="5.59" height="20.88" style="fill:#ebebeb"></rect><rect x="134.44" y="172.35" width="5.59" height="20.88" style="fill:#ebebeb"></rect><rect x="118.93" y="171.99" width="5.59" height="20.88" transform="translate(-36.67 30.74) rotate(-12.53)" style="fill:#ebebeb"></rect><rect x="96.77" y="167.98" width="2.8" height="25.24" style="fill:#ebebeb"></rect><rect x="130.04" y="167.98" width="2.8" height="25.24" style="fill:#ebebeb"></rect><rect x="163.89" y="174.19" width="27.26" height="18.82" style="fill:#ebebeb"></rect></g><g id="freepik--Shadow--inject-2"><ellipse id="freepik--path--inject-2" cx="250" cy="416.24" rx="193.89" ry="11.32" style="fill:#f5f5f5"></ellipse></g><g id="freepik--Table--inject-2"><path d="M260.48,299s3.16-6.89-.45-13.69-4.66-8.4-2.35-9.79,3.36,5.43,3.36,5.43a15.3,15.3,0,0,0,.33-9.61c-1.6-4.92-2.6-12.93-.42-13.79s.42,10,2.32,13.69a31.71,31.71,0,0,0,1.86-8.07c.26-4-.15-10.26,1.58-11.88s2.83-.49,1.14,8.22a91.33,91.33,0,0,0-1.69,15.81s3.75-11.44,6.27-11.77,2.51,3.37.36,6.58-6.31,9-7,11.93c0,0,4.11-8.61,7.82-6s-3.23,7.84-6.31,9.72-5.24,13.65-5.24,13.65Z" style="fill:#407BFF"></path><path d="M260.48,299s3.16-6.89-.45-13.69-4.66-8.4-2.35-9.79,3.36,5.43,3.36,5.43a15.3,15.3,0,0,0,.33-9.61c-1.6-4.92-2.6-12.93-.42-13.79s.42,10,2.32,13.69a31.71,31.71,0,0,0,1.86-8.07c.26-4-.15-10.26,1.58-11.88s2.83-.49,1.14,8.22a91.33,91.33,0,0,0-1.69,15.81s3.75-11.44,6.27-11.77,2.51,3.37.36,6.58-6.31,9-7,11.93c0,0,4.11-8.61,7.82-6s-3.23,7.84-6.31,9.72-5.24,13.65-5.24,13.65Z" style="opacity:0.2;isolation:isolate"></path><path d="M263,301.82s-3.08-6.94.61-13.68,4.76-8.33,2.48-9.76-3.43,5.39-3.43,5.39a15.4,15.4,0,0,1-.22-9.63c1.66-4.89,2.76-12.89.59-13.78s-.54,10-2.49,13.66a32.15,32.15,0,0,1-1.76-8.1c-.21-3.95.27-10.25-1.43-11.9s-2.83-.54-1.24,8.21a92,92,0,0,1,1.5,15.83s-3.62-11.5-6.13-11.87-2.55,3.33-.44,6.58,6.2,9.06,6.85,12c0,0-4-8.67-7.75-6.08s3.13,7.88,6.2,9.8,5.06,13.73,5.06,13.73Z" style="fill:#407BFF"></path><polygon points="248.78 296.87 274.21 296.87 272.15 315.07 250.84 315.07 248.78 296.87" style="fill:#263238"></polygon><path d="M214.09,313.83h95.29c0,3.86-2.76,7-6.25,7.21-10.24.51-26,2.3-31,8.56-9.32,11.66-8.41,66.67,2.74,76.16,3.5,3,13.7,8.88,13.7,8.88H234.89s9.52-6,12.83-8.88c11.1-9.57,11.42-64.55,2.06-76.16-4.8-6-19.56-7.89-29.47-8.49C216.81,320.89,214.09,317.69,214.09,313.83Z" style="fill:#407BFF"></path><path d="M214.09,313.83h95.29c0,3.86-2.76,7-6.25,7.21-10.24.51-26,2.3-31,8.56-9.32,11.66-8.41,66.67,2.74,76.16,3.5,3,13.7,8.88,13.7,8.88H234.89s9.52-6,12.83-8.88c11.1-9.57,11.42-64.55,2.06-76.16-4.8-6-19.56-7.89-29.47-8.49C216.81,320.89,214.09,317.69,214.09,313.83Z" style="fill:#fff;opacity:0.7000000000000001;isolation:isolate"></path><path d="M297.57,321.42c-9.68.86-21.28,3-25.43,8.18a21.21,21.21,0,0,0-3.15,6H253a21.36,21.36,0,0,0-3.2-6c-4.17-5.18-15.87-7.31-25.36-8.18Z" style="opacity:0.2;isolation:isolate"></path></g><g id="freepik--Sofa--inject-2"><polygon points="178.15 414.64 168.55 414.64 163.13 370.27 176.35 370.27 178.15 414.64" style="fill:#263238"></polygon><polygon points="80.95 414.64 90.56 414.64 95.98 370.27 82.76 370.27 80.95 414.64" style="fill:#263238"></polygon><polygon points="216.98 414.64 207.38 414.64 201.96 370.27 215.18 370.27 216.98 414.64" style="fill:#263238"></polygon><polygon points="119.78 414.64 129.39 414.64 134.81 370.27 121.59 370.27 119.78 414.64" style="fill:#263238"></polygon><polygon points="216.98 414.64 207.38 414.64 201.96 370.27 215.18 370.27 216.98 414.64" style="fill:#fff;opacity:0.2"></polygon><polygon points="119.78 414.64 129.39 414.64 134.81 370.27 121.59 370.27 119.78 414.64" style="fill:#fff;opacity:0.2"></polygon><path d="M206.24,315.72c.59-7.36,6.29-13,13.12-13H188.92c-6.83,0-12.53,5.65-13.13,13l-3,37.18h30.44Z" style="fill:#407BFF"></path><path d="M206.24,315.72c.59-7.36,6.29-13,13.12-13H188.92c-6.83,0-12.53,5.65-13.13,13l-3,37.18h30.44Z" style="fill:#fff;opacity:0.4;isolation:isolate"></path><path d="M206.24,315.72c.59-7.36,6.29-13,13.12-13H188.92c-6.83,0-12.53,5.65-13.13,13l-3,37.18h30.44Z" style="opacity:0.2;isolation:isolate"></path><path d="M76.4,270.08h94.47c3.8,0,7.25,3.33,7.71,7.43l11,97H81.38l-11-97C69.91,273.41,72.61,270.08,76.4,270.08Z" style="fill:#407BFF"></path><path d="M76.4,270.08h94.47c3.8,0,7.25,3.33,7.71,7.43l11,97H81.38l-11-97C69.91,273.41,72.61,270.08,76.4,270.08Z" style="fill:#fff;opacity:0.4;isolation:isolate"></path><path d="M102.3,374.48H81.38l-11-97c-.47-4.1,2.23-7.43,6-7.43h7.19c3.79,0,7.25,3.33,7.71,7.43Z" style="opacity:0.2;isolation:isolate"></path><path d="M110,374.37l-3.79-46.9a4.34,4.34,0,0,0-3.59-4.05l-1.56-.21a5.81,5.81,0,0,1-4.82-5.43l-.69-8.55a5.83,5.83,0,0,1,5.52-6.52h-35a5.83,5.83,0,0,0-5.52,6.52l.69,8.55a5.82,5.82,0,0,0,4.82,5.43l1.56.21a4.33,4.33,0,0,1,3.59,4.05L75,374.37a6.33,6.33,0,0,0,6.1,6h35A6.33,6.33,0,0,1,110,374.37Z" style="fill:#407BFF"></path><path d="M232.88,302.71H219.36c-6.83,0-12.53,5.65-13.12,13l-3,37.18h-72.5l-3-37.18c-.59-7.36-6.29-13-13.12-13H101.08a5.83,5.83,0,0,0-5.52,6.52l.69,8.55a5.81,5.81,0,0,0,4.82,5.43l1.56.21a4.34,4.34,0,0,1,3.59,4.05l3.79,46.9a6.33,6.33,0,0,0,6.09,6H217.86a6.33,6.33,0,0,0,6.09-6l3.79-46.9a4.34,4.34,0,0,1,3.59-4.05l1.56-.21a5.81,5.81,0,0,0,4.82-5.43l.69-8.55A5.83,5.83,0,0,0,232.88,302.71Z" style="fill:#407BFF"></path><g style="opacity:0.4;isolation:isolate"><path d="M110,374.37l-3.79-46.9a4.34,4.34,0,0,0-3.59-4.05l-1.56-.21a5.81,5.81,0,0,1-4.82-5.43l-.69-8.55a5.83,5.83,0,0,1,5.52-6.52h-35a5.83,5.83,0,0,0-5.52,6.52l.69,8.55a5.82,5.82,0,0,0,4.82,5.43l1.56.21a4.33,4.33,0,0,1,3.59,4.05L75,374.37a6.33,6.33,0,0,0,6.1,6h35A6.33,6.33,0,0,1,110,374.37Z" style="fill:#fff"></path></g><path d="M232.88,302.71H219.36c-6.83,0-12.53,5.65-13.12,13l-3,37.18h-72.5l-3-37.18c-.59-7.36-6.29-13-13.12-13H101.08a5.83,5.83,0,0,0-5.52,6.52l.69,8.55a5.81,5.81,0,0,0,4.82,5.43l1.56.21a4.34,4.34,0,0,1,3.59,4.05l3.79,46.9a6.33,6.33,0,0,0,6.09,6H217.86a6.33,6.33,0,0,0,6.09-6l3.79-46.9a4.34,4.34,0,0,1,3.59-4.05l1.56-.21a5.81,5.81,0,0,0,4.82-5.43l.69-8.55A5.83,5.83,0,0,0,232.88,302.71Z" style="fill:#fff;opacity:0.5;isolation:isolate"></path></g><g id="freepik--musical-notes--inject-2"><path d="M345,159.31c-.27,0-.42,0-.44,0l.06-.5c.11,0,10.77,1.07,14.49-16.94,3.64-17.68,6.29-30.45,23.83-27.09C399.39,117.93,405,95.44,405,95.21l.49.12c-.05.22-5,20.23-19.48,20.24a16.65,16.65,0,0,1-3.22-.32c-16.27-3.12-19.29,7.56-23.25,26.7C356.18,158.33,347.08,159.31,345,159.31Z" style="fill:#407BFF"></path><path d="M346.56,161.35a9.53,9.53,0,0,1-1.22-.07l.08-.49c.12,0,11.94,1.77,16.86-14.06.86-2.79,1.55-5.38,2.21-7.89,3.11-11.77,5.16-19.55,19.88-19.55,18.51,0,24.48-7.62,28.12-19.91l.47.14c-4.37,14.78-12.12,20.27-28.59,20.27C370,119.79,368.13,127,365,139c-.66,2.51-1.35,5.11-2.22,7.91C358.65,160.08,349.8,161.35,346.56,161.35Z" style="fill:#407BFF"></path><path d="M349.33,164.39a18.9,18.9,0,0,1-3.37-.27l.1-.49c.11,0,11.13,2.18,16.24-6.2a51.36,51.36,0,0,0,3.57-8.22c3.77-10.06,8.46-22.6,23.29-23.33,20.57-1,27.75-5.85,32-21.52l.49.13c-4.81,17.59-13.91,21-32.5,21.89-14.5.72-19.12,13.08-22.84,23a51.34,51.34,0,0,1-3.61,8.3C359.25,163.41,353.14,164.39,349.33,164.39Z" style="fill:#407BFF"></path><path d="M372.78,119.28c-.56-.25-1.18-.33-1.7-.52a7,7,0,0,1-1.51-.73,6.27,6.27,0,0,1-1.25-1h0a.55.55,0,0,0-.51-.12.36.36,0,0,0-.25.51l3.28,6.86a4.37,4.37,0,0,0-2.18,0c-1.57.43-2.47,1.58-2,2.57s2.12,1.45,3.68,1,2.46-1.58,2-2.57a1.62,1.62,0,0,0-.34-.45l-3-6.48.25.14a8.33,8.33,0,0,0,1.74.6c.62.13,1.18.14,1.73.31a6.07,6.07,0,0,1,1.57.73A5.67,5.67,0,0,0,372.78,119.28Z" style="fill:#263238"></path><path d="M400.66,118.54c-.69-.31-1.45-.41-2.09-.64a9.48,9.48,0,0,1-1.87-.9,8.28,8.28,0,0,1-1.54-1.22h0l0,0a.71.71,0,0,0-.63-.15.45.45,0,0,0-.3.64l4,8.45a5.35,5.35,0,0,0-2.69,0c-1.94.52-3,1.94-2.46,3.16s2.6,1.79,4.53,1.26,3-1.94,2.46-3.17a2.17,2.17,0,0,0-.42-.55l-3.68-8,.31.16a9.28,9.28,0,0,0,2.15.74c.75.17,1.45.18,2.12.4a7,7,0,0,1,1.94.89A7,7,0,0,0,400.66,118.54Z" style="fill:#263238"></path><path d="M356.4,150.77c-.42-.19-.88-.25-1.27-.39a5.62,5.62,0,0,1-2.05-1.27h0a.42.42,0,0,0-.39-.09.27.27,0,0,0-.18.38l2.44,5.11a3.22,3.22,0,0,0-1.63,0c-1.16.32-1.83,1.18-1.48,1.92s1.57,1.07,2.74.76,1.83-1.18,1.48-1.92a1.11,1.11,0,0,0-.25-.33l-2.23-4.83.19.11a6.23,6.23,0,0,0,1.3.44c.46.1.88.11,1.29.24a4.29,4.29,0,0,1,1.17.54A4.53,4.53,0,0,0,356.4,150.77Z" style="fill:#263238"></path></g><g id="freepik--Character--inject-2"><g id="freepik--group--inject-2"><path d="M269.8,197.21l-5-3a7.13,7.13,0,0,0-1.34-1.82c-.72-.6-10.31-1.21-10.58-1s.09,7,.59,7.29,8.05.41,8.8.39a2.63,2.63,0,0,0,1.4-.54l4.65,3.43Z" style="fill:#e4897b"></path><path d="M314,205.15c-7.85,1.7-23.67,3.17-25.65,2.24S268,195.79,268,195.79l-3.56,4.13s14.44,12.27,23.73,15.63,31,2.88,31,2.88,3.14-3.08,2.59-7.23S314,205.15,314,205.15Z" style="fill:#263238"></path><polygon points="395.61 398.13 405.71 407.24 414.38 406.2 402.71 393.38 395.61 398.13" style="fill:#e4897b"></polygon><polygon points="251.97 398.31 240.79 406.06 232.33 403.94 245.53 392.7 251.97 398.31" style="fill:#e4897b"></polygon><path d="M365,181.42l-5.29-2.24a6.83,6.83,0,0,1-2.2,0c-.89-.22-6.89-7.47-6.9-7.79s5.57-3.92,6.11-3.72,4.95,6.13,5.37,6.74a2.61,2.61,0,0,1,.38,1.42l5.38,1.71Z" style="fill:#e4897b"></path><path d="M409.33,396.88l-8,7.74s-57.89-46.18-58.84-53.91,0-48.91,0-48.91-7.73,9.05-19.69,22.48c-19.2,21.59-49.29,54.49-75.65,79.34l-9.29-6.44C304.72,313.74,326,269.11,326,269.11l2.75-21,38.42-3.48s9.24,24.2,6.74,42.17-12,51.41-11,58.15S409.33,396.88,409.33,396.88Z" style="fill:#407BFF"></path><path d="M405.06,405.66h9.59a.68.68,0,0,1,.67.54l1.56,7a1.17,1.17,0,0,1-.9,1.38,1.06,1.06,0,0,1-.25,0c-3.11-.05-5.37-.24-9.26-.24-2.4,0-9.64.25-13,.25s-3.74-3.27-2.39-3.57c6.09-1.33,10.67-3.17,12.62-4.91A1.89,1.89,0,0,1,405.06,405.66Z" style="fill:#263238"></path><path d="M234,401.86l8.68,4.08a.7.7,0,0,1,.38.78l-1.59,7a1.16,1.16,0,0,1-1.4.86l-.24-.08c-2.79-1.37-4.75-2.5-8.28-4.16-2.17-1-8.83-3.88-11.83-5.29s-2-4.56-.64-4.25c6.07,1.39,11,1.67,13.51.92A2,2,0,0,1,234,401.86Z" style="fill:#263238"></path><polygon points="327.06 253.8 368.97 249.1 369.53 254.09 327.02 258.33 327.06 253.8"></polygon><rect x="354.24" y="248.42" width="1.51" height="8.91" transform="translate(-25.95 41.09) rotate(-6.39)" style="fill:#407BFF"></rect><rect x="333.03" y="250.8" width="1.51" height="8.91" transform="translate(-26.34 38.75) rotate(-6.39)" style="fill:#407BFF"></rect><rect x="338.6" y="251.2" width="7.8" height="5.62" transform="translate(-26.15 39.71) rotate(-6.39)" style="fill:#fff"></rect><path d="M327.12,254.48C322.65,222,314,205.15,314,205.15c19.8-7.64,44.66-11.53,44.66-11.53,6.92,17.73,9.63,43.08,10.54,56.66Z" style="fill:#263238"></path><path d="M344.15,196.44C342,200.83,333.28,203,333.28,203s-5.71.62-5.27-1.42c2.84-1.7,3.75-3.7,3.65-5.75a9.79,9.79,0,0,0-1-3.45.91.91,0,0,1-.07-.14c-.3-.62-.66-1.24-1-1.83l7.23-11.59c.51,4.45,1.89,11.69,4.89,15.54A7.08,7.08,0,0,0,344.15,196.44Z" style="fill:#e4897b"></path><path d="M341.7,194.32c-.2.42-.43.69-.69.76-4,1.1-7.68-.66-10.34-2.74a.91.91,0,0,1-.07-.14c-.3-.62-.66-1.24-1-1.83l7.23-11.59C337.32,183.23,338.7,190.47,341.7,194.32Z" style="opacity:0.2;isolation:isolate"></path><path d="M358.65,193.62s18.83-1.65,19.1-4.2-15.83-8.8-15.83-8.8l2.77-4.68s16.49,4.38,22.82,9.37,3.58,12.27-24.59,22.08C362.92,207.39,355.37,200.9,358.65,193.62Z" style="fill:#263238"></path><path d="M344.07,283.57,342.5,301.8s-7.73,9.05-19.69,22.48c12.69-20.49,16.12-34.6,16.12-34.6-4.14-5.53-4.57-14.37-4.57-14.37Z" style="opacity:0.30000000000000004;isolation:isolate"></path><ellipse cx="341.59" cy="226.69" rx="11.56" ry="12.53" style="fill:#fff"></ellipse><path d="M346.6,223.56c-.72-.58-1.59-.93-2.27-1.4a10.8,10.8,0,0,1-1.92-1.64,9.58,9.58,0,0,1-1.44-1.91h0l0,0a.84.84,0,0,0-.7-.37.54.54,0,0,0-.55.65l2.15,11.23a6.59,6.59,0,0,0-3.2-.78c-2.44,0-4.18,1.36-3.88,3s2.53,2.91,5,2.89,4.18-1.36,3.88-3a2.18,2.18,0,0,0-.33-.79l-1.87-10.56c.1.1.2.2.31.29a12.07,12.07,0,0,0,2.31,1.54c.84.44,1.66.65,2.39,1.12a8.68,8.68,0,0,1,2,1.66A8.48,8.48,0,0,0,346.6,223.56Z" style="fill:#407BFF"></path><path d="M347.76,217.07a1.52,1.52,0,0,1-1.07-.61c-8.31-9.08-4.56-36.55-4.4-37.72l.5.07c0,.29-3.88,28.41,4.27,37.32.34.36.62.5.85.41,2.52-1,1.86-21.75,1.58-30.6-.15-4.84-.16-5.53-.05-5.72.42-.73,3.07-2,3.6-2.28l.22.45a13.46,13.46,0,0,0-3.38,2.07c-.05.24,0,2.66.11,5.47.46,14.47.73,30-1.89,31.07A.8.8,0,0,1,347.76,217.07Z" style="fill:#407BFF"></path><g style="opacity:0.2;isolation:isolate"><path d="M347.76,217.07a1.52,1.52,0,0,1-1.07-.61c-8.31-9.08-4.56-36.55-4.4-37.72l.5.07c0,.29-3.88,28.41,4.27,37.32.34.36.62.5.85.41,2.52-1,1.86-21.75,1.58-30.6-.15-4.84-.16-5.53-.05-5.72.42-.73,3.07-2,3.6-2.28l.22.45a13.46,13.46,0,0,0-3.38,2.07c-.05.24,0,2.66.11,5.47.46,14.47.73,30-1.89,31.07A.8.8,0,0,1,347.76,217.07Z"></path></g><rect x="352.47" y="165.13" width="8.31" height="15.57" rx="0.74" transform="translate(332.9 568.54) rotate(-112.44)" style="fill:#407BFF"></rect><rect x="352.47" y="165.13" width="8.31" height="15.57" rx="0.74" transform="translate(332.9 568.54) rotate(-112.44)" style="fill:#fff;opacity:0.4"></rect><rect x="352.74" y="165.78" width="8.31" height="15.57" rx="0.74" transform="translate(332.67 569.68) rotate(-112.44)" style="fill:#407BFF"></rect><rect x="352.74" y="165.78" width="8.31" height="15.57" rx="0.74" transform="translate(332.67 569.68) rotate(-112.44)" style="fill:#fff;opacity:0.7000000000000001"></rect><rect x="353.22" y="166.91" width="7.27" height="13.61" transform="translate(332.48 569.86) rotate(-112.44)" style="fill:#407BFF"></rect><rect x="353.03" y="170.84" width="6" height="6.43" transform="translate(331.03 569.56) rotate(-112.44)" style="opacity:0.2;isolation:isolate"></rect><rect x="359.52" y="174.93" width="0.4" height="0.45" transform="translate(335.11 574.49) rotate(-112.44)" style="fill:#fff;opacity:0.4"></rect><rect x="358.8" y="173.98" width="0.4" height="1.45" transform="translate(334.53 573.2) rotate(-112.44)" style="fill:#fff;opacity:0.4"></rect><rect x="358.07" y="173.03" width="0.4" height="2.45" transform="translate(333.84 571.9) rotate(-112.42)" style="fill:#fff;opacity:0.4"></rect><rect x="358.27" y="172.7" width="0.4" height="1.45" transform="translate(334.98 570.94) rotate(-112.44)" style="fill:#fff;opacity:0.4"></rect><rect x="357.54" y="171.75" width="0.4" height="2.45" transform="translate(334.39 569.65) rotate(-112.44)" style="fill:#fff;opacity:0.4"></rect><rect x="356.35" y="170.49" width="0.4" height="4.45" transform="translate(332.99 568.2) rotate(-112.44)" style="fill:#fff;opacity:0.4"></rect><rect x="357.47" y="170.78" width="0.4" height="1.45" transform="translate(335.66 567.56) rotate(-112.44)" style="fill:#fff;opacity:0.4"></rect><rect x="357.67" y="170.45" width="0.4" height="0.45" transform="matrix(-0.38, -0.92, 0.92, -0.38, 336.61, 566.59)" style="fill:#fff;opacity:0.4"></rect><path d="M360.06,171.44a.88.88,0,1,1-.47,1.15A.88.88,0,0,1,360.06,171.44Z" style="fill:#fff"></path><rect x="360.35" y="172.01" width="0.25" height="0.87" transform="translate(338.73 571.45) rotate(-112.45)" style="fill:#407BFF"></rect><rect x="360.19" y="171.62" width="0.25" height="0.87" transform="translate(338.72 570.76) rotate(-112.43)" style="fill:#407BFF"></rect><path d="M359.25,169.48a.87.87,0,1,1,.67,1.61.87.87,0,1,1-.67-1.61Z" style="fill:#fff"></path><polygon points="359.14 170.36 359.95 170.03 359.39 169.83 359.14 170.36" style="fill:#407BFF"></polygon><polygon points="359.29 170.73 360.1 170.39 359.55 170.19 359.29 170.73" style="fill:#407BFF"></polygon><path d="M361.54,175a.88.88,0,1,0-1.14-.48A.87.87,0,0,0,361.54,175Z" style="fill:#fff"></path><polygon points="360.84 174.48 361.65 174.14 361.39 174.68 360.84 174.48" style="fill:#407BFF"></polygon><polygon points="360.69 174.11 361.5 173.78 361.24 174.31 360.69 174.11" style="fill:#407BFF"></polygon><path d="M344.73,171.17c1.94,3.36,1.44,7.29-1.12,8.77s-6.2-.06-8.14-3.42-1.45-7.29,1.11-8.76S342.79,167.81,344.73,171.17Z" style="fill:#263238"></path><path d="M344.73,171.17c1.94,3.36,1.44,7.29-1.12,8.77s-6.2-.06-8.14-3.42-1.45-7.29,1.11-8.76S342.79,167.81,344.73,171.17Z" style="fill:#fff;opacity:0.2;isolation:isolate"></path><path d="M342.13,172.67c1.35,2.34,1,5.07-.78,6.1s-4.31,0-5.66-2.38-1-5.06.77-6.09S340.78,170.34,342.13,172.67Z" style="fill:#407BFF"></path><path d="M335.15,161.15c3.72.75,7,8.09,4.4,14.52s-13.06-10.23-13.06-10.23S332.78,160.67,335.15,161.15Z" style="fill:#263238"></path><path d="M330.22,191.46a9.6,9.6,0,0,0,11.31-2.72,10.66,10.66,0,0,0,2.53-7.45c0-.37-.06-.75-.11-1.13-1.1-6.94-6.37-17-14.41-16.93a10.41,10.41,0,0,0-9.29,15.09C323.56,185.16,325.19,189.34,330.22,191.46Z" style="fill:#e4897b"></path><path d="M332.83,176.63c-.38.16-.91-.17-1.1-.75a.83.83,0,0,1-.06-.21.9.9,0,0,0,1,.55c.31-.13.43-.55.34-1a.54.54,0,0,1,.05.11C333.31,175.89,333.21,176.48,332.83,176.63Z" style="fill:#263238"></path><path d="M339.3,174c-.37.16-.91-.17-1.11-.75a1.4,1.4,0,0,1-.09-.29c.22.51.71.77,1,.62s.44-.58.33-1.06c0,.05,0,.1.07.16C339.78,173.21,339.67,173.81,339.3,174Z" style="fill:#263238"></path><path d="M336.25,174.34A22.16,22.16,0,0,0,341,178.1a3.58,3.58,0,0,1-2.54,1.65Z" style="fill:#de5753"></path><path d="M339.45,169.46a.41.41,0,0,1-.36.14,2.91,2.91,0,0,0-2.52.71.36.36,0,1,1-.53-.49h0a3.59,3.59,0,0,1,3.17-.94.36.36,0,0,1,.31.41h0A1.11,1.11,0,0,1,339.45,169.46Z" style="fill:#263238"></path><path d="M329.38,173.82a.3.3,0,0,1-.21,0,.35.35,0,0,1-.17-.48h0a3.6,3.6,0,0,1,2.66-2,.35.35,0,0,1,.4.32h0a.38.38,0,0,1-.32.4h0a2.91,2.91,0,0,0-2.08,1.6A.35.35,0,0,1,329.38,173.82Z" style="fill:#263238"></path><path d="M321.79,167.43l.6,1c-.74,1,.38,4.3,1.4,5.28,2.17,2.09,2.59,6.72,1.37,9.22,0,0-.58-1.08-1.39-.38s2.15,6.33,5.26,8.22c0,0-3.91-1.19-8.31-6.49-4.06-4.91-6.42-9.49-6.29-12.19Z" style="fill:#263238"></path><path d="M319.57,185.35a7.22,7.22,0,0,0,5.22,1.79c2.53-.17,2.95-2.64,1.55-4.59-1.27-1.72-4.12-3.77-6.32-2.62S317.82,183.77,319.57,185.35Z" style="fill:#e4897b"></path><path d="M338.78,181.74a19.71,19.71,0,0,0,.14,2.89l-.49.14c-2.22.62-3.45.17-4.15-.51a3,3,0,0,1-.72-1.21,3.19,3.19,0,0,1-.15-.79,10.79,10.79,0,0,0,4.61-.32A7.11,7.11,0,0,0,338.78,181.74Z" style="fill:#263238"></path><path d="M338,181.94l0,.86c-2.09.58-3.64.7-4.48.25a3.19,3.19,0,0,1-.15-.79A10.79,10.79,0,0,0,338,181.94Z" style="fill:#fff"></path><path d="M338.43,184.77c-2.22.62-3.45.17-4.15-.51a7.4,7.4,0,0,1,2.6-.2A2.8,2.8,0,0,1,338.43,184.77Z" style="fill:#de5753"></path><path d="M315.21,175.6c-1.55-1.29-3-4.56.63-9.8s14-9.69,18.44-8.5,4.11,7.32-1.88,11.07l1.88-2.77s-4.26,3.87-7.79,5.35a16.43,16.43,0,0,0,4.11-5.15s-6.65,4.69-10.41,6A9.08,9.08,0,0,0,315.21,175.6Z" style="fill:#263238"></path><path d="M326.43,180.14c1.94,3.37,1.44,7.29-1.12,8.77s-6.21,0-8.15-3.42-1.44-7.28,1.12-8.76S324.48,176.78,326.43,180.14Z" style="fill:#263238"></path><path d="M326.43,180.14c1.94,3.37,1.44,7.29-1.12,8.77s-6.21,0-8.15-3.42-1.44-7.28,1.12-8.76S324.48,176.78,326.43,180.14Z" style="fill:#fff;opacity:0.2;isolation:isolate"></path><path d="M320.45,179.75s-4-13.93,1.34-19.06a5.27,5.27,0,0,0-1.4.42c-.86.37-6.53,6.31-2.77,19.23Z" style="fill:#407BFF"></path><path d="M320.45,179.75s-4-13.93,1.34-19.06a5.27,5.27,0,0,0-1.4.42c-.86.37-6.53,6.31-2.77,19.23Z" style="opacity:0.2;isolation:isolate"></path><path d="M332.26,208.14a7.88,7.88,0,0,1-4.48-1.38c-6.62-4.48-6.31-19-6.3-19.67a.28.28,0,0,1,.26-.24.24.24,0,0,1,.24.26c0,.14-.31,14.91,6.08,19.23s13.8-3.39,13.88-3.46a.24.24,0,0,1,.35,0,.25.25,0,0,1,0,.35C342.24,203.28,337.51,208.14,332.26,208.14Z" style="fill:#407BFF"></path><g style="opacity:0.2;isolation:isolate"><path d="M332.26,208.14a7.88,7.88,0,0,1-4.48-1.38c-6.62-4.48-6.31-19-6.3-19.67a.28.28,0,0,1,.26-.24.24.24,0,0,1,.24.26c0,.14-.31,14.91,6.08,19.23s13.8-3.39,13.88-3.46a.24.24,0,0,1,.35,0,.25.25,0,0,1,0,.35C342.24,203.28,337.51,208.14,332.26,208.14Z"></path></g><path d="M323.82,181.65c1.35,2.33,1,5.06-.77,6.09s-4.32,0-5.67-2.37-1-5.07.78-6.1S322.47,179.31,323.82,181.65Z" style="fill:#407BFF"></path></g></g></svg>